<?xml version="1.0" standalone="no"?>
<!DOCTYPE svg PUBLIC "-//W3C//DTD SVG 20010904//EN"
 "http://www.w3.org/TR/2001/REC-SVG-20010904/DTD/svg10.dtd">
<svg version="1.0" xmlns="http://www.w3.org/2000/svg"
 width="521.000000pt" height="478.000000pt" viewBox="0 0 521.000000 478.000000"
 preserveAspectRatio="xMidYMid meet">

<g transform="translate(0.000000,478.000000) scale(0.100000,-0.100000)"
fill="#000000" stroke="none">
<path d="M2300 4430 c-143 -10 -335 -60 -603 -157 -50 -18 -141 -62 -259 -126
-215 -116 -389 -260 -593 -490 -130 -146 -265 -373 -339 -569 -70 -189 -115
-427 -116 -615 0 -168 42 -442 92 -588 174 -514 536 -916 1051 -1169 211 -104
440 -176 672 -212 120 -18 122 -18 103 4 -9 9 -26 37 -38 62 -12 25 -37 65
-54 90 -18 25 -46 70 -64 100 -40 71 -80 108 -156 145 -40 20 -69 42 -83 65
-23 34 -39 57 -78 110 -11 15 -42 46 -70 69 -61 52 -75 69 -75 93 0 26 -97
184 -150 246 -32 37 -63 60 -111 81 -64 29 -66 31 -78 78 -23 89 -92 226 -136
268 -23 22 -96 76 -161 120 -135 90 -221 167 -270 241 l-34 51 0 124 c0 143
12 215 74 465 39 159 92 319 115 349 5 6 23 46 41 90 42 105 97 194 126 207
13 6 24 14 24 18 0 11 137 70 161 70 21 0 22 -3 16 -92 -5 -91 -34 -185 -72
-228 -22 -25 -68 -151 -71 -194 -1 -23 2 -84 8 -136 9 -83 16 -106 58 -185
109 -208 113 -216 135 -332 10 -51 22 -93 26 -93 12 0 12 1 -10 110 -23 112
-48 179 -94 252 -71 111 -89 162 -100 287 -10 115 -9 117 18 186 15 39 34 77
41 86 7 8 28 49 45 90 24 57 32 96 37 169 l7 94 35 8 c56 13 282 28 318 22 26
-5 32 -10 26 -23 -3 -9 -11 -61 -16 -116 -11 -111 -3 -159 55 -345 29 -93 48
-134 120 -255 88 -146 89 -151 84 -234 -3 -42 -13 -110 -23 -151 -26 -111 -25
-374 2 -398 3 -4 3 16 -1 43 -12 85 -5 255 15 350 31 148 34 197 15 254 -9 27
-24 60 -34 73 -10 13 -29 43 -43 68 -14 25 -41 72 -60 105 -36 64 -77 182
-104 304 -12 53 -15 104 -12 175 5 110 19 152 46 140 9 -4 37 -8 62 -9 25 -1
59 -2 75 -3 l30 -2 2 -114 c1 -79 9 -139 24 -197 15 -59 22 -118 23 -199 2
-128 18 -206 54 -263 29 -48 41 -43 12 6 -34 57 -41 94 -50 262 -6 115 -14
178 -29 225 -16 49 -21 92 -21 172 0 121 -9 110 105 128 39 6 92 17 119 25 55
17 56 16 74 -28 l12 -32 -4 42 c-4 41 -3 42 33 54 20 7 46 18 58 26 20 14 22
12 32 -37 6 -28 11 -57 11 -64 0 -7 23 -45 51 -86 53 -77 79 -130 79 -161 0
-11 5 -19 10 -19 28 0 -5 87 -70 183 -50 74 -87 180 -71 206 12 19 99 48 211
70 63 12 138 27 165 32 28 6 71 9 97 7 l47 -3 -29 -85 c-17 -47 -37 -100 -46
-118 -9 -19 -27 -66 -40 -105 -21 -60 -24 -83 -18 -135 3 -35 9 -61 11 -58 3
3 7 38 8 78 3 52 13 96 35 153 17 44 35 91 40 105 5 14 22 59 37 100 l29 75
79 5 c85 6 75 17 -20 22 -50 3 -50 3 -45 33 14 82 2 180 -34 278 l-36 97 73 0
c116 0 399 -59 527 -110 63 -25 78 -19 23 8 -96 49 -361 127 -518 152 -38 7
-90 16 -115 22 -53 13 -423 18 -560 8z m528 -80 c12 0 24 -6 27 -12 2 -7 17
-51 34 -98 35 -100 46 -192 31 -251 l-11 -41 -87 8 c-111 10 -183 7 -258 -12
-32 -8 -87 -21 -122 -29 l-63 -13 7 47 c8 61 31 140 45 157 6 8 7 14 2 14 -16
0 -42 -68 -55 -141 -13 -84 -16 -86 -140 -88 l-87 -2 -26 46 c-23 39 -27 54
-23 103 3 31 13 75 23 97 11 22 21 45 24 50 2 6 -3 4 -12 -4 -18 -15 -57 -133
-57 -173 0 -14 11 -46 25 -71 13 -26 21 -48 17 -50 -13 -6 -316 11 -392 22
-91 14 -171 8 -268 -21 -40 -11 -75 -18 -78 -15 -11 11 114 114 168 137 13 6
52 31 88 56 66 46 227 131 234 123 2 -2 -23 -49 -55 -103 -32 -55 -59 -109
-58 -120 0 -13 9 -2 23 29 55 119 125 208 179 227 103 36 146 48 212 58 97 16
152 27 205 40 49 13 373 40 405 34 11 -2 30 -4 43 -4z"/>
<path d="M2685 4220 c13 -63 34 -123 34 -100 -1 14 -9 48 -20 75 -10 28 -17
39 -14 25z"/>
<path d="M2316 4204 c-4 -14 -5 -29 -2 -31 3 -3 8 7 12 21 3 15 4 29 1 32 -2
3 -8 -7 -11 -22z"/>
<path d="M2551 4155 c0 -16 4 -37 9 -45 8 -12 10 -10 9 10 0 14 -4 34 -9 45
-7 17 -9 16 -9 -10z"/>
<path d="M2301 4144 c0 -11 3 -14 6 -6 3 7 2 16 -1 19 -3 4 -6 -2 -5 -13z"/>
<path d="M3148 4200 c-16 -119 -12 -148 43 -257 46 -89 53 -111 57 -178 3 -48
8 -72 13 -63 10 15 3 119 -9 145 -91 185 -87 171 -92 293 -5 104 -6 110 -12
60z"/>
<path d="M3327 4180 c-19 -67 -22 -172 -6 -240 5 -25 30 -95 54 -156 25 -61
45 -116 45 -122 0 -7 13 -38 30 -69 23 -45 31 -78 37 -148 7 -82 6 -138 -11
-355 -3 -45 -2 -69 3 -60 5 8 15 86 22 173 16 198 3 317 -42 403 -16 31 -29
63 -29 71 0 8 -9 33 -19 56 -90 197 -107 298 -73 430 23 90 13 106 -11 17z"/>
<path d="M3452 4050 c0 -19 2 -27 5 -17 2 9 2 25 0 35 -3 9 -5 1 -5 -18z"/>
<path d="M3592 3993 c-11 -52 -5 -102 22 -173 10 -25 22 -67 28 -95 5 -27 14
-57 20 -65 19 -30 -1 78 -29 152 -28 74 -36 161 -20 206 5 13 4 22 -1 22 -6 0
-15 -21 -20 -47z"/>
<path d="M3880 3945 c38 -72 40 -81 40 -165 0 -50 -6 -108 -14 -132 -37 -114
-45 -156 -39 -206 3 -29 10 -55 14 -58 5 -3 6 19 3 48 -4 41 0 74 22 148 23
78 28 114 28 200 0 103 0 106 -38 173 -52 92 -65 85 -16 -8z"/>
<path d="M3763 3914 c-3 -8 -1 -20 6 -27 8 -8 11 -4 9 16 -3 31 -6 34 -15 11z"/>
<path d="M3138 3756 c-15 -19 -40 -60 -55 -93 -25 -51 -28 -70 -28 -151 l1
-92 57 -110 c78 -150 98 -225 91 -349 -3 -68 -2 -90 5 -73 6 12 11 61 13 110
2 97 -23 198 -72 282 -67 115 -74 140 -74 240 0 87 2 100 32 157 17 34 36 64
42 68 14 9 32 45 23 45 -4 0 -20 -15 -35 -34z"/>
<path d="M2992 3750 c0 -14 2 -19 5 -12 2 6 2 18 0 25 -3 6 -5 1 -5 -13z"/>
<path d="M2708 3678 c-55 -112 -63 -138 -63 -208 0 -55 7 -80 43 -161 23 -53
42 -111 42 -130 0 -25 3 -30 12 -21 15 15 2 70 -47 186 -34 81 -37 96 -32 151
5 56 61 209 89 242 6 7 6 13 1 13 -5 0 -26 -33 -45 -72z"/>
<path d="M3761 3672 c-6 -12 -11 -30 -11 -41 0 -11 -5 -41 -12 -65 -9 -33 -9
-69 0 -147 10 -98 15 -111 78 -239 l68 -135 4 -141 c2 -82 -1 -157 -7 -179
-13 -49 -7 -56 13 -16 12 23 16 62 16 166 0 151 -3 164 -85 325 -24 47 -51
113 -59 146 -20 79 -21 215 0 283 16 55 13 77 -5 43z"/>
<path d="M1443 3597 c-17 -23 -41 -73 -53 -110 -21 -63 -22 -76 -13 -158 7
-63 19 -107 40 -151 39 -80 51 -120 57 -187 7 -74 16 -77 16 -5 0 62 -18 124
-61 209 -14 28 -31 82 -38 121 -15 87 -2 146 53 250 19 37 34 69 33 71 -2 2
-17 -16 -34 -40z"/>
<path d="M1577 3588 c4 -13 7 -72 7 -133 -1 -60 0 -92 2 -70 2 22 9 66 15 98
11 60 -1 127 -22 127 -6 0 -7 -9 -2 -22z"/>
<path d="M2180 3591 c-6 -12 -13 -84 -16 -161 -6 -143 6 -225 42 -292 8 -15
25 -60 38 -100 12 -40 30 -87 38 -103 28 -53 68 -218 68 -277 0 -31 4 -59 9
-62 12 -8 12 88 0 144 -16 74 -60 209 -70 216 -5 3 -9 12 -9 20 0 8 -16 54
-36 102 -47 116 -53 141 -63 252 -6 64 -4 124 4 185 7 50 11 92 9 93 -1 2 -7
-6 -14 -17z"/>
<path d="M4010 3599 c0 -6 6 -25 14 -42 7 -18 23 -54 35 -82 23 -53 26 -86 17
-150 l-6 -40 16 34 c10 22 14 52 11 80 -6 71 -87 255 -87 200z"/>
<path d="M2267 3568 c-7 -51 16 -110 76 -193 42 -59 57 -89 62 -126 4 -27 11
-49 16 -49 5 0 7 10 5 23 -3 12 -7 38 -11 57 -3 19 -18 51 -33 70 -82 105
-107 161 -96 217 4 20 2 33 -4 33 -5 0 -12 -15 -15 -32z"/>
<path d="M2351 3565 c0 -16 6 -41 14 -55 18 -32 18 -17 1 40 -13 40 -15 42
-15 15z"/>
<path d="M3570 3560 c0 -9 14 -56 31 -105 40 -114 50 -267 24 -355 -41 -138
-50 -215 -35 -297 15 -87 25 -113 73 -196 54 -92 59 -77 7 18 -31 56 -47 102
-60 168 -17 86 -17 94 0 171 10 45 26 108 35 141 26 87 16 221 -24 343 -34
102 -50 138 -51 112z"/>
<path d="M3185 3520 c4 -14 14 -32 22 -40 13 -13 13 -11 2 15 -17 40 -33 57
-24 25z"/>
<path d="M3300 3481 c0 -8 9 -45 21 -83 17 -58 20 -90 17 -206 -3 -118 -7
-149 -32 -227 -54 -167 -37 -326 54 -505 48 -95 66 -120 88 -120 12 0 9 7 -10
28 -34 36 -102 171 -124 247 -29 96 -24 238 10 350 41 130 47 306 16 426 -20
77 -40 123 -40 90z"/>
<path d="M2460 3387 c0 -9 13 -31 28 -49 57 -68 85 -111 94 -147 9 -38 11
-209 3 -251 -19 -93 -9 -230 17 -230 5 0 6 9 1 23 -4 12 -6 67 -3 122 9 179 5
349 -8 372 -11 20 -104 146 -123 168 -6 5 -9 2 -9 -8z"/>
<path d="M2927 3353 c-21 -34 21 -159 80 -235 29 -38 46 -73 54 -110 11 -52
29 -88 29 -57 0 44 -34 135 -64 172 -47 59 -65 98 -79 175 -7 40 -16 62 -20
55z"/>
<path d="M2790 3323 c0 -38 35 -112 91 -193 32 -47 70 -107 83 -135 33 -67 51
-178 50 -302 -1 -57 2 -103 7 -103 11 0 22 123 16 188 -14 142 -45 234 -106
312 -45 57 -110 173 -117 208 -7 36 -24 53 -24 25z"/>
<path d="M1030 3306 c0 -4 12 -35 26 -69 24 -56 26 -71 21 -147 -4 -57 -17
-121 -40 -195 -35 -111 -55 -180 -77 -267 -13 -48 -8 -122 12 -208 14 -59 28
-74 17 -18 -4 24 -8 86 -9 138 0 101 10 149 76 355 43 132 56 261 32 316 -8
19 -19 47 -24 63 -8 25 -34 49 -34 32z"/>
<path d="M4005 3206 c-9 -13 -22 -55 -29 -92 -18 -99 9 -238 65 -333 34 -57
58 -210 53 -336 -4 -126 9 -108 20 26 6 68 3 104 -14 184 -12 55 -30 114 -40
132 -10 18 -31 69 -46 113 -23 72 -26 93 -22 170 4 68 11 97 28 124 24 40 10
51 -15 12z"/>
<path d="M2750 2973 c1 -13 29 -59 30 -48 0 21 -13 55 -21 55 -5 0 -9 -3 -9
-7z"/>
<path d="M1610 2931 c0 -7 17 -57 37 -110 l37 -96 0 -170 0 -170 14 70 c15 76
10 220 -8 290 -21 74 -80 213 -80 186z"/>
<path d="M2156 2815 c3 -33 11 -69 18 -80 27 -42 36 -136 26 -255 -6 -63 -12
-126 -15 -140 -15 -82 -15 -179 -1 -230 26 -95 28 -100 38 -100 6 0 8 8 5 18
-43 155 -42 141 -24 299 26 219 24 352 -6 408 -6 11 -19 47 -29 80 l-18 60 6
-60z"/>
<path d="M2737 2763 c-2 -4 -8 -26 -11 -48 -22 -120 -113 -278 -255 -440 -114
-130 -166 -268 -176 -466 -3 -55 -14 -114 -30 -164 -14 -43 -28 -91 -30 -106
-3 -16 -9 -38 -14 -51 -10 -27 -5 -205 9 -328 5 -47 10 -128 9 -180 0 -91 7
-126 46 -246 20 -59 81 -185 104 -214 30 -36 26 -5 -4 34 -14 18 -25 36 -25
40 0 4 -12 33 -26 64 -57 125 -82 311 -85 633 -1 136 1 165 21 230 13 41 31
85 40 99 10 14 37 61 60 105 24 44 60 105 80 135 20 30 75 127 121 215 81 154
84 158 87 120 4 -72 10 -82 67 -116 44 -27 63 -47 91 -96 19 -34 48 -71 64
-83 24 -17 30 -29 30 -60 0 -45 -9 -50 -95 -50 -35 0 -75 -4 -89 -10 -29 -11
-57 -59 -58 -99 -1 -38 43 -110 109 -179 85 -88 118 -134 164 -229 59 -123 79
-201 85 -323 9 -194 26 -375 36 -388 7 -8 7 -17 -2 -27 -19 -23 5 -20 148 21
120 33 170 53 110 42 -26 -5 -27 -4 -14 21 23 44 67 196 76 260 9 65 -8 231
-29 284 -6 16 -11 39 -11 51 0 13 -18 59 -40 102 -39 78 -55 101 -177 252 -73
89 -80 114 -65 226 8 63 15 84 32 98 26 21 85 23 158 7 27 -7 65 -9 85 -5 47
9 93 48 100 84 3 16 22 57 42 91 21 35 33 67 29 71 -5 4 -76 43 -159 85 -82
42 -160 85 -171 96 -14 13 -23 37 -27 66 -2 25 -11 51 -18 58 -8 8 -56 35
-107 60 -53 27 -100 57 -109 72 -11 16 -18 54 -21 110 -5 102 -21 107 -65 23
-35 -68 -43 -76 -44 -47 -1 23 -25 92 -35 102 -3 4 -8 3 -11 -2z"/>
<path d="M3774 2693 c4 -32 16 -74 26 -93 41 -72 59 -117 62 -153 3 -50 18
-48 18 3 0 26 -13 64 -40 115 -25 48 -42 96 -46 130 -4 30 -11 55 -17 55 -6 0
-7 -21 -3 -57z"/>
<path d="M1160 2521 c0 -32 6 -72 13 -87 26 -60 59 -116 64 -111 3 3 -9 33
-26 67 -25 49 -31 73 -31 125 0 37 -4 65 -10 65 -6 0 -10 -26 -10 -59z"/>
<path d="M1584 2303 c10 -131 19 -153 89 -229 77 -86 104 -139 114 -229 l8
-70 3 68 c3 59 -1 77 -27 132 -17 35 -38 69 -48 77 -10 7 -37 36 -60 63 -33
41 -43 62 -52 116 -6 36 -11 87 -11 112 0 29 -4 47 -11 47 -9 0 -10 -25 -5
-87z"/>
<path d="M4370 1320 c-6 -11 -8 -20 -6 -20 3 0 10 9 16 20 6 11 8 20 6 20 -3
0 -10 -9 -16 -20z"/>
<path d="M4210 1130 c-6 -11 -8 -20 -6 -20 3 0 10 9 16 20 6 11 8 20 6 20 -3
0 -10 -9 -16 -20z"/>
<path d="M4115 1049 c-22 -17 -52 -42 -67 -56 -56 -54 -272 -194 -385 -252
-24 -12 -43 -24 -43 -26 0 -13 313 162 330 184 3 3 30 25 60 48 57 43 159 132
150 132 -3 0 -23 -14 -45 -30z"/>
<path d="M3525 674 c-38 -19 -59 -32 -45 -28 29 8 140 63 125 63 -5 -1 -41
-16 -80 -35z"/>
<path d="M2950 510 c-25 -4 -76 -11 -113 -15 -38 -4 -66 -9 -64 -11 6 -7 194
14 232 25 37 11 8 12 -55 1z"/>
<path d="M2403 483 c9 -2 23 -2 30 0 6 3 -1 5 -18 5 -16 0 -22 -2 -12 -5z"/>
<path d="M2538 473 c6 -2 18 -2 25 0 6 3 1 5 -13 5 -14 0 -19 -2 -12 -5z"/>
<path d="M2658 473 c6 -2 18 -2 25 0 6 3 1 5 -13 5 -14 0 -19 -2 -12 -5z"/>
</g>
</svg>
